<?xml version="1.0" encoding="UTF-8"?>
<svg xmlns="http://www.w3.org/2000/svg" xmlns:xlink="http://www.w3.org/1999/xlink" width="375pt" height="374.999991pt" viewBox="0 0 375 374.999991" version="1.1">
<defs>
<clipPath id="clip2">
  <path d="M 4.652344 1 L 208.230469 1 L 208.230469 174.695312 L 4.652344 174.695312 Z M 4.652344 1 "/>
</clipPath>
<clipPath id="clip3">
  <path d="M 79 12 L 208.230469 12 L 208.230469 174.695312 L 79 174.695312 Z M 79 12 "/>
</clipPath>
<clipPath id="clip4">
  <path d="M 4.652344 1 L 208.230469 1 L 208.230469 139 L 4.652344 139 Z M 4.652344 1 "/>
</clipPath>
<clipPath id="clip5">
  <path d="M 4.652344 68 L 208.230469 68 L 208.230469 139 L 4.652344 139 Z M 4.652344 68 "/>
</clipPath>
<clipPath id="clip6">
  <path d="M 41.996094 39.074219 L 171.480469 39.074219 L 171.480469 70.433594 L 41.996094 70.433594 Z M 41.996094 39.074219 "/>
</clipPath>
<clipPath id="clip7">
  <path d="M 46.496094 39.074219 L 166.941406 39.074219 C 169.425781 39.074219 171.441406 41.085938 171.441406 43.574219 L 171.441406 65.933594 C 171.441406 68.417969 169.425781 70.433594 166.941406 70.433594 L 46.496094 70.433594 C 44.007812 70.433594 41.996094 68.417969 41.996094 65.933594 L 41.996094 43.574219 C 41.996094 41.085938 44.007812 39.074219 46.496094 39.074219 Z M 46.496094 39.074219 "/>
</clipPath>
<clipPath id="clip9">
  <path d="M 0.996094 0.0742188 L 130.480469 0.0742188 L 130.480469 31.433594 L 0.996094 31.433594 Z M 0.996094 0.0742188 "/>
</clipPath>
<clipPath id="clip10">
  <path d="M 5.496094 0.0742188 L 125.941406 0.0742188 C 128.425781 0.0742188 130.441406 2.085938 130.441406 4.574219 L 130.441406 26.933594 C 130.441406 29.417969 128.425781 31.433594 125.941406 31.433594 L 5.496094 31.433594 C 3.007812 31.433594 0.996094 29.417969 0.996094 26.933594 L 0.996094 4.574219 C 0.996094 2.085938 3.007812 0.0742188 5.496094 0.0742188 Z M 5.496094 0.0742188 "/>
</clipPath>
<clipPath id="clip8">
  <rect x="0" y="0" width="131" height="32"/>
</clipPath>
<g id="surface6" clip-path="url(#clip8)">
<g clip-path="url(#clip9)" clip-rule="nonzero">
<g clip-path="url(#clip10)" clip-rule="nonzero">
<!-- White background removed for transparency -->
</g>
</g>
</g>
<clipPath id="clip1">
  <rect x="0" y="0" width="213" height="179"/>
</clipPath>
<g id="surface8" clip-path="url(#clip1)">
<g clip-path="url(#clip2)" clip-rule="nonzero">
<path style=" stroke:none;fill-rule:nonzero;fill:rgb(25.489807%,45.489502%,69.40918%);fill-opacity:1;" d="M 95.464844 4.535156 L 15.730469 50.367188 C 14.046875 51.332031 12.519531 52.496094 11.144531 53.863281 C 9.769531 55.230469 8.597656 56.75 7.625 58.429688 C 6.652344 60.105469 5.914062 61.878906 5.410156 63.75 C 4.90625 65.621094 4.652344 67.527344 4.652344 69.464844 L 4.652344 152.214844 C 4.652344 152.9375 4.6875 153.660156 4.757812 154.378906 C 4.828125 155.097656 4.9375 155.8125 5.078125 156.519531 C 5.21875 157.230469 5.394531 157.929688 5.601562 158.621094 C 5.8125 159.3125 6.054688 159.992188 6.332031 160.660156 C 6.609375 161.328125 6.917969 161.980469 7.257812 162.617188 C 7.597656 163.253906 7.96875 163.875 8.371094 164.472656 C 8.773438 165.074219 9.203125 165.65625 9.660156 166.214844 C 10.121094 166.773438 10.605469 167.308594 11.117188 167.820312 C 11.628906 168.328125 12.160156 168.8125 12.71875 169.273438 C 13.277344 169.730469 13.859375 170.160156 14.460938 170.5625 C 15.0625 170.964844 15.679688 171.335938 16.316406 171.675781 C 16.953125 172.015625 17.605469 172.324219 18.273438 172.601562 C 18.941406 172.878906 19.621094 173.121094 20.3125 173.332031 C 21.003906 173.542969 21.707031 173.714844 22.414062 173.859375 C 23.125 174 23.835938 174.105469 24.558594 174.175781 C 25.277344 174.246094 25.996094 174.28125 26.71875 174.28125 L 186.28125 174.28125 C 187.003906 174.28125 187.722656 174.246094 188.441406 174.175781 C 189.164062 174.105469 189.875 174 190.585938 173.859375 C 191.292969 173.714844 191.996094 173.542969 192.6875 173.332031 C 193.378906 173.121094 194.058594 172.878906 194.726562 172.601562 C 195.390625 172.324219 196.046875 172.015625 196.683594 171.675781 C 197.320312 171.335938 197.9375 170.964844 198.539062 170.5625 C 199.140625 170.160156 199.71875 169.730469 200.277344 169.273438 C 200.835938 168.8125 201.371094 168.328125 201.882812 167.820312 C 202.394531 167.308594 202.878906 166.773438 203.339844 166.214844 C 203.796875 165.65625 204.226562 165.074219 204.628906 164.472656 C 205.03125 163.875 205.402344 163.253906 205.742188 162.617188 C 206.082031 161.980469 206.390625 161.328125 206.667969 160.660156 C 206.945312 159.992188 207.1875 159.3125 207.398438 158.621094 C 207.605469 157.929688 207.78125 157.230469 207.921875 156.519531 C 208.0625 155.8125 208.167969 155.097656 208.242188 154.378906 C 208.3125 153.660156 208.347656 152.9375 208.347656 152.214844 L 208.347656 69.464844 C 208.347656 67.527344 208.097656 65.625 207.597656 63.753906 C 207.097656 61.886719 206.359375 60.113281 205.394531 58.433594 C 204.425781 56.757812 203.253906 55.238281 201.886719 53.867188 C 200.515625 52.5 198.992188 51.332031 197.3125 50.367188 L 117.535156 4.535156 C 115.855469 3.566406 114.082031 2.828125 112.210938 2.328125 C 110.339844 1.824219 108.4375 1.574219 106.5 1.574219 C 104.5625 1.574219 102.660156 1.824219 100.789062 2.328125 C 98.917969 2.828125 97.144531 3.566406 95.464844 4.535156 Z M 95.464844 4.535156 "/>
</g>
<g clip-path="url(#clip3)" clip-rule="nonzero">
<path style=" stroke:none;fill-rule:nonzero;fill:rgb(25.489807%,45.489502%,69.40918%);fill-opacity:1;" d="M 208.347656 152.214844 L 208.347656 69.464844 C 208.347656 67.527344 208.097656 65.625 207.597656 63.753906 C 207.097656 61.886719 206.359375 60.113281 205.394531 58.433594 C 204.425781 56.757812 203.253906 55.238281 201.886719 53.867188 C 200.515625 52.5 198.992188 51.332031 197.3125 50.367188 L 131.664062 12.472656 L 79.296875 126.371094 L 145.414062 163.585938 C 151.65625 167.089844 158.238281 169.75 165.160156 171.558594 C 172.082031 173.371094 179.125 174.277344 186.28125 174.28125 C 187.003906 174.285156 187.722656 174.25 188.445312 174.179688 C 189.164062 174.109375 189.878906 174.003906 190.589844 173.863281 C 191.296875 173.726562 192 173.550781 192.691406 173.339844 C 193.382812 173.132812 194.0625 172.890625 194.730469 172.613281 C 195.398438 172.335938 196.054688 172.027344 196.691406 171.6875 C 197.328125 171.347656 197.949219 170.976562 198.550781 170.574219 C 199.152344 170.175781 199.730469 169.746094 200.289062 169.285156 C 200.851562 168.828125 201.386719 168.34375 201.894531 167.832031 C 202.40625 167.320312 202.890625 166.785156 203.351562 166.226562 C 203.808594 165.667969 204.238281 165.085938 204.640625 164.484375 C 205.042969 163.882812 205.414062 163.261719 205.753906 162.625 C 206.09375 161.988281 206.402344 161.335938 206.679688 160.667969 C 206.953125 159.996094 207.199219 159.316406 207.40625 158.625 C 207.617188 157.933594 207.789062 157.230469 207.929688 156.523438 C 208.070312 155.8125 208.175781 155.097656 208.246094 154.378906 C 208.3125 153.660156 208.347656 152.9375 208.347656 152.214844 Z M 208.347656 152.214844 "/>
</g>
<g clip-path="url(#clip4)" clip-rule="nonzero">
<path style=" stroke:none;fill-rule:nonzero;fill:rgb(59.999084%,65.879822%,70.979309%);fill-opacity:1;" d="M 197.269531 50.367188 L 117.535156 4.535156 C 115.855469 3.566406 114.082031 2.828125 112.210938 2.328125 C 110.339844 1.824219 108.4375 1.574219 106.5 1.574219 C 104.5625 1.574219 102.660156 1.824219 100.789062 2.328125 C 98.917969 2.828125 97.144531 3.566406 95.464844 4.535156 L 15.730469 50.367188 C 14.046875 51.332031 12.519531 52.496094 11.144531 53.863281 C 9.769531 55.230469 8.597656 56.75 7.625 58.429688 C 6.652344 60.105469 5.914062 61.878906 5.410156 63.75 C 4.90625 65.621094 4.652344 67.527344 4.652344 69.464844 L 4.652344 70.609375 C 4.652344 72.546875 4.90625 74.449219 5.40625 76.316406 C 5.910156 78.1875 6.644531 79.960938 7.613281 81.636719 C 8.582031 83.3125 9.75 84.832031 11.117188 86.203125 C 12.488281 87.570312 14.011719 88.738281 15.6875 89.707031 L 95.464844 135.75 C 97.144531 136.71875 98.917969 137.457031 100.789062 137.960938 C 102.660156 138.460938 104.5625 138.710938 106.5 138.710938 C 108.4375 138.710938 110.339844 138.460938 112.210938 137.960938 C 114.082031 137.457031 115.855469 136.71875 117.535156 135.75 L 197.269531 89.707031 C 198.949219 88.738281 200.46875 87.570312 201.839844 86.203125 C 203.207031 84.832031 204.375 83.3125 205.34375 81.636719 C 206.3125 79.960938 207.046875 78.1875 207.550781 76.316406 C 208.050781 74.449219 208.304688 72.546875 208.304688 70.609375 L 208.304688 69.464844 C 208.304688 67.527344 208.054688 65.625 207.554688 63.753906 C 207.054688 61.886719 206.320312 60.113281 205.351562 58.433594 C 204.382812 56.757812 203.210938 55.238281 201.84375 53.867188 C 200.472656 52.5 198.949219 51.332031 197.269531 50.367188 Z M 197.269531 50.367188 "/>
</g>
<path style=" stroke:none;fill-rule:nonzero;fill:rgb(59.999084%,65.879822%,70.979309%);fill-opacity:1;" d="M 169.179688 105.917969 L 197.269531 89.707031 C 198.148438 89.203125 198.984375 88.636719 199.773438 88.007812 L 169.179688 57.414062 Z M 169.179688 105.917969 "/>
<g clip-path="url(#clip5)" clip-rule="nonzero">
<path style=" stroke:none;fill-rule:nonzero;fill:rgb(59.999084%,65.879822%,70.979309%);fill-opacity:1;" d="M 197.269531 85.972656 L 117.535156 131.84375 C 115.855469 132.816406 114.082031 133.550781 112.210938 134.054688 C 110.339844 134.558594 108.4375 134.808594 106.5 134.808594 C 104.5625 134.808594 102.660156 134.558594 100.789062 134.054688 C 98.917969 133.550781 97.144531 132.816406 95.464844 131.84375 L 15.730469 85.972656 C 14.140625 85.066406 12.6875 83.980469 11.367188 82.710938 C 10.050781 81.445312 8.910156 80.035156 7.941406 78.484375 C 6.972656 76.929688 6.210938 75.285156 5.65625 73.542969 C 5.101562 71.800781 4.765625 70.015625 4.652344 68.191406 L 4.652344 70.652344 C 4.652344 72.589844 4.90625 74.492188 5.40625 76.359375 C 5.910156 78.230469 6.644531 80 7.613281 81.679688 C 8.582031 83.355469 9.75 84.875 11.117188 86.246094 C 12.488281 87.613281 14.011719 88.78125 15.6875 89.75 L 95.464844 135.75 C 97.144531 136.71875 98.917969 137.457031 100.789062 137.960938 C 102.660156 138.460938 104.5625 138.710938 106.5 138.710938 C 108.4375 138.710938 110.339844 138.460938 112.210938 137.960938 C 114.082031 137.457031 115.855469 136.71875 117.535156 135.75 L 197.269531 89.707031 C 198.949219 88.738281 200.46875 87.570312 201.839844 86.203125 C 203.207031 84.832031 204.375 83.3125 205.34375 81.636719 C 206.3125 79.960938 207.046875 78.1875 207.550781 76.316406 C 208.050781 74.449219 208.304688 72.546875 208.304688 70.609375 L 208.304688 69.464844 C 208.304688 68.996094 208.304688 68.617188 208.304688 68.148438 C 208.199219 69.976562 207.867188 71.761719 207.316406 73.507812 C 206.765625 75.25 206.007812 76.902344 205.042969 78.457031 C 204.082031 80.011719 202.941406 81.425781 201.625 82.699219 C 200.308594 83.972656 198.859375 85.0625 197.269531 85.972656 Z M 197.269531 85.972656 "/>
</g>
<path style=" stroke:none;fill-rule:nonzero;fill:rgb(100%,100%,100%);fill-opacity:1;" d="M 42.125 104.941406 L 95.464844 135.75 C 97.144531 136.71875 98.917969 137.457031 100.789062 137.957031 C 102.660156 138.460938 104.5625 138.710938 106.5 138.710938 C 108.4375 138.710938 110.339844 138.460938 112.210938 137.960938 C 114.082031 137.457031 115.855469 136.71875 117.535156 135.75 L 170.875 104.941406 L 170.875 61.613281 C 170.875 61.210938 170.835938 60.808594 170.757812 60.414062 C 170.679688 60.015625 170.5625 59.632812 170.40625 59.257812 C 170.253906 58.886719 170.0625 58.53125 169.839844 58.195312 C 169.613281 57.859375 169.359375 57.546875 169.074219 57.261719 C 168.789062 56.976562 168.476562 56.722656 168.140625 56.496094 C 167.804688 56.273438 167.449219 56.082031 167.078125 55.929688 C 166.703125 55.773438 166.320312 55.65625 165.921875 55.578125 C 165.527344 55.5 165.125 55.460938 164.722656 55.460938 L 48.277344 55.460938 C 47.875 55.460938 47.472656 55.5 47.078125 55.578125 C 46.679688 55.65625 46.296875 55.773438 45.921875 55.929688 C 45.550781 56.082031 45.195312 56.273438 44.859375 56.496094 C 44.523438 56.722656 44.210938 56.976562 43.925781 57.261719 C 43.640625 57.546875 43.386719 57.859375 43.160156 58.195312 C 42.9375 58.53125 42.746094 58.886719 42.59375 59.257812 C 42.4375 59.632812 42.320312 60.015625 42.242188 60.414062 C 42.164062 60.808594 42.125 61.210938 42.125 61.613281 Z M 42.125 104.941406 "/>
<path style=" stroke:none;fill-rule:nonzero;fill:rgb(25.489807%,45.489502%,69.40918%);fill-opacity:1;" d="M 130.222656 83.976562 L 81.460938 83.976562 C 81.101562 83.976562 80.757812 83.910156 80.421875 83.769531 C 80.089844 83.632812 79.796875 83.4375 79.542969 83.183594 C 79.289062 82.925781 79.089844 82.632812 78.953125 82.300781 C 78.816406 81.96875 78.746094 81.621094 78.746094 81.261719 C 78.746094 80.902344 78.816406 80.554688 78.953125 80.222656 C 79.089844 79.890625 79.289062 79.59375 79.542969 79.339844 C 79.796875 79.085938 80.089844 78.890625 80.421875 78.753906 C 80.757812 78.613281 81.101562 78.546875 81.460938 78.546875 L 130.222656 78.546875 C 130.582031 78.546875 130.929688 78.613281 131.261719 78.753906 C 131.59375 78.890625 131.886719 79.085938 132.140625 79.339844 C 132.398438 79.59375 132.59375 79.890625 132.730469 80.222656 C 132.867188 80.554688 132.9375 80.902344 132.9375 81.261719 C 132.9375 81.621094 132.867188 81.96875 132.730469 82.300781 C 132.59375 82.632812 132.398438 82.925781 132.140625 83.183594 C 131.886719 83.4375 131.59375 83.632812 131.261719 83.769531 C 130.929688 83.910156 130.582031 83.976562 130.222656 83.976562 Z M 130.222656 83.976562 "/>
<path style=" stroke:none;fill-rule:nonzero;fill:rgb(25.489807%,45.489502%,69.40918%);fill-opacity:1;" d="M 130.222656 97.089844 L 81.460938 97.089844 C 81.101562 97.089844 80.757812 97.019531 80.421875 96.882812 C 80.089844 96.746094 79.796875 96.550781 79.542969 96.292969 C 79.289062 96.039062 79.089844 95.746094 78.953125 95.414062 C 78.816406 95.082031 78.746094 94.734375 78.746094 94.375 C 78.746094 94.015625 78.816406 93.667969 78.953125 93.335938 C 79.089844 93.003906 79.289062 92.707031 79.542969 92.453125 C 79.796875 92.199219 80.089844 92.003906 80.421875 91.863281 C 80.757812 91.726562 81.101562 91.660156 81.460938 91.660156 L 130.222656 91.660156 C 130.582031 91.660156 130.929688 91.726562 131.261719 91.863281 C 131.59375 92.003906 131.886719 92.199219 132.140625 92.453125 C 132.398438 92.707031 132.59375 93.003906 132.730469 93.335938 C 132.867188 93.667969 132.9375 94.015625 132.9375 94.375 C 132.9375 94.734375 132.867188 95.082031 132.730469 95.414062 C 132.59375 95.746094 132.398438 96.039062 132.140625 96.292969 C 131.886719 96.550781 131.59375 96.746094 131.261719 96.882812 C 130.929688 97.019531 130.582031 97.089844 130.222656 97.089844 Z M 130.222656 97.089844 "/>
<path style=" stroke:none;fill-rule:nonzero;fill:rgb(25.489807%,45.489502%,69.40918%);fill-opacity:1;" d="M 103.785156 110.246094 L 81.460938 110.246094 C 81.101562 110.246094 80.757812 110.175781 80.421875 110.039062 C 80.089844 109.902344 79.796875 109.703125 79.542969 109.449219 C 79.289062 109.195312 79.089844 108.902344 78.953125 108.570312 C 78.816406 108.234375 78.746094 107.890625 78.746094 107.53125 C 78.746094 107.167969 78.816406 106.820312 78.953125 106.484375 C 79.089844 106.148438 79.285156 105.851562 79.539062 105.59375 C 79.792969 105.335938 80.085938 105.136719 80.417969 104.992188 C 80.753906 104.851562 81.101562 104.777344 81.460938 104.769531 L 103.785156 104.769531 C 104.144531 104.777344 104.492188 104.851562 104.828125 104.992188 C 105.160156 105.136719 105.453125 105.335938 105.707031 105.59375 C 105.960938 105.851562 106.15625 106.148438 106.292969 106.484375 C 106.429688 106.820312 106.5 107.167969 106.5 107.53125 C 106.5 107.890625 106.429688 108.234375 106.292969 108.570312 C 106.15625 108.902344 105.960938 109.195312 105.703125 109.449219 C 105.449219 109.703125 105.15625 109.902344 104.824219 110.039062 C 104.492188 110.175781 104.144531 110.246094 103.785156 110.246094 Z M 103.785156 110.246094 "/>
<g clip-path="url(#clip6)" clip-rule="nonzero">
<g clip-path="url(#clip7)" clip-rule="nonzero">
<use xlink:href="#surface6" transform="matrix(1,0,0,1,41,39)"/>
</g>
</g>
<path style="fill:none;stroke-width:2;stroke-linecap:butt;stroke-linejoin:miter;stroke:rgb(0%,0%,0%);stroke-opacity:1;stroke-miterlimit:4;" d="M -0.0000109557 0.999661 L 70.132993 0.998795 " transform="matrix(0.000232887,-0.817587,0.817587,0.000232887,41.174877,104.363039)"/>
<path style="fill:none;stroke-width:2;stroke-linecap:butt;stroke-linejoin:miter;stroke:rgb(0%,0%,0%);stroke-opacity:1;stroke-miterlimit:4;" d="M 1.001465 11.909897 L 1.001465 6.453675 C 1.001465 5.006008 1.574799 3.620452 2.597243 2.598008 C 3.619688 1.575563 5.010021 1.00223 6.45291 1.00223 L 152.982586 1.00223 C 154.664364 1.00223 156.279253 1.666341 157.46892 2.856008 C 158.658586 4.045674 159.327475 5.660563 159.327475 7.342341 L 159.327475 13.682453 " transform="matrix(0.817587,0,0,0.817587,41.177309,38.68059)"/>
<path style="fill:none;stroke-width:2;stroke-linecap:butt;stroke-linejoin:miter;stroke:rgb(0%,0%,0%);stroke-opacity:1;stroke-miterlimit:4;" d="M 0.000162263 0.998186 L 66.654982 0.999206 " transform="matrix(0.000866551,-0.817587,0.817587,0.000866551,170.558896,104.358643)"/>
<path style="fill:none;stroke-width:2;stroke-linecap:butt;stroke-linejoin:miter;stroke:rgb(0%,0%,0%);stroke-opacity:1;stroke-miterlimit:4;" d="M 0.0000840423 0.999056 L 158.300659 1.000913 " transform="matrix(-0.817571,-0.00522176,0.00522176,-0.817571,171.432352,55.570706)"/>
</g>
</defs>
<g id="surface1">
<!-- White background removed for transparency -->
<use xlink:href="#surface8" transform="matrix(1,0,0,1,81,100)"/>
</g>
</svg>
